<?xml version="1.0" encoding="UTF-8"?>
<svg width="176px" height="40px" viewBox="0 0 176 40" version="1.1" xmlns="http://www.w3.org/2000/svg" xmlns:xlink="http://www.w3.org/1999/xlink">
    <!-- Generator: Sketch 43.2 (39069) - http://www.bohemiancoding.com/sketch -->
    <title>Logo TBD</title>
    <desc>Created with Sketch.</desc>
    <defs></defs>
    <g id="Login" stroke="none" stroke-width="1" fill="none" fill-rule="evenodd">
        <g id="Welcome-Mobile-A" transform="translate(-32.000000, -32.000000)" fill="#FFFFFF">
            <g id="Logo-TBD" transform="translate(32.000000, 32.000000)">
                <path d="M2,38 L174,38 L174,2 L2,2 L2,38 Z M0,0 L176,0 L176,40 L0,40 L0,0 Z" id="Outer-Stroke" fill-rule="nonzero"></path>
                <path d="M132.865,15.38 L134.29,15.38 L137.56,24.11 L137.59,24.11 L140.965,15.38 L142.3,15.38 L138.145,26 L136.93,26 L132.865,15.38 Z M143.485,15.38 L145.36,15.38 L148.96,23.705 L148.99,23.705 L152.62,15.38 L154.45,15.38 L154.45,26 L153.19,26 L153.19,17.09 L153.16,17.09 L149.35,26 L148.585,26 L144.775,17.09 L144.745,17.09 L144.745,26 L143.485,26 L143.485,15.38 Z M162.13,17.255 C161.919999,16.9149983 161.640002,16.6675008 161.29,16.5125 C160.939998,16.3574992 160.575002,16.28 160.195,16.28 C159.914999,16.28 159.640001,16.3149997 159.37,16.385 C159.099999,16.4550003 158.857501,16.5599993 158.6425,16.7 C158.427499,16.8400007 158.255001,17.0249988 158.125,17.255 C157.994999,17.4850012 157.93,17.7549985 157.93,18.065 C157.93,18.3050012 157.9675,18.5174991 158.0425,18.7025 C158.1175,18.8875009 158.239999,19.0549993 158.41,19.205 C158.580001,19.3550007 158.809999,19.4949994 159.1,19.625 C159.390001,19.7550006 159.744998,19.8849994 160.165,20.015 C160.575002,20.1450007 160.972498,20.2849993 161.3575,20.435 C161.742502,20.5850007 162.082499,20.7749988 162.3775,21.005 C162.672501,21.2350012 162.907499,21.5224983 163.0825,21.8675 C163.257501,22.2125017 163.345,22.6449974 163.345,23.165 C163.345,23.6950026 163.240001,24.154998 163.03,24.545 C162.819999,24.935002 162.542502,25.2574987 162.1975,25.5125 C161.852498,25.7675013 161.455002,25.9574994 161.005,26.0825 C160.554998,26.2075006 160.090002,26.27 159.61,26.27 C159.299998,26.27 158.990002,26.2425003 158.68,26.1875 C158.369998,26.1324997 158.072501,26.0475006 157.7875,25.9325 C157.502499,25.8174994 157.235001,25.6675009 156.985,25.4825 C156.734999,25.2974991 156.520001,25.0700013 156.34,24.8 L157.42,23.915 C157.650001,24.305002 157.969998,24.599999 158.38,24.8 C158.790002,25.000001 159.224998,25.1 159.685,25.1 C159.955001,25.1 160.227499,25.0600004 160.5025,24.98 C160.777501,24.8999996 161.024999,24.7825008 161.245,24.6275 C161.465001,24.4724992 161.644999,24.2800012 161.785,24.05 C161.925001,23.8199989 161.995,23.5550015 161.995,23.255 C161.995,22.9249983 161.940001,22.657501 161.83,22.4525 C161.719999,22.247499 161.550001,22.0700007 161.32,21.92 C161.089999,21.7699993 160.800002,21.6350006 160.45,21.515 C160.099998,21.3949994 159.690002,21.2550008 159.22,21.095 C158.839998,20.9749994 158.490002,20.8375008 158.17,20.6825 C157.849998,20.5274992 157.572501,20.3375011 157.3375,20.1125 C157.102499,19.8874989 156.917501,19.6175016 156.7825,19.3025 C156.647499,18.9874984 156.58,18.6100022 156.58,18.17 C156.58,17.6599974 156.679999,17.2150019 156.88,16.835 C157.080001,16.4549981 157.349998,16.1375013 157.69,15.8825 C158.030002,15.6274987 158.414998,15.4350006 158.845,15.305 C159.275002,15.1749994 159.724998,15.11 160.195,15.11 C160.795003,15.11 161.342498,15.2024991 161.8375,15.3875 C162.332502,15.5725009 162.774998,15.8949977 163.165,16.355 L162.13,17.255 Z" id="VMS"></path>
                <polygon id="VR" fill-rule="nonzero" points="125 11 125 29 126 29 126 11"></polygon>
                <path d="M16.49,13.256 L18.812,13.256 L24.356,26 L21.188,26 L20.09,23.3 L15.14,23.3 L14.078,26 L10.982,26 L16.49,13.256 Z M17.57,16.964 L16.022,20.924 L19.136,20.924 L17.57,16.964 Z M31.214,20.078 C31.0819993,19.885999 30.8960012,19.7270006 30.656,19.601 C30.4159988,19.4749994 30.1580014,19.412 29.882,19.412 C29.1979966,19.412 28.6670019,19.615998 28.289,20.024 C27.9109981,20.432002 27.722,20.9659967 27.722,21.626 C27.722,22.2860033 27.9109981,22.819998 28.289,23.228 C28.6670019,23.636002 29.1979966,23.84 29.882,23.84 C30.1820015,23.84 30.4399989,23.7740007 30.656,23.642 C30.8720011,23.5099993 31.0579992,23.3540009 31.214,23.174 L32.996,25.046 C32.5759979,25.4780022 32.0810029,25.7809991 31.511,25.955 C30.9409972,26.1290009 30.3980026,26.216 29.882,26.216 C29.2099966,26.216 28.577003,26.1080011 27.983,25.892 C27.388997,25.6759989 26.8730022,25.367002 26.435,24.965 C25.9969978,24.562998 25.6520013,24.0800028 25.4,23.516 C25.1479987,22.9519972 25.022,22.3220035 25.022,21.626 C25.022,20.9299965 25.1479987,20.3000028 25.4,19.736 C25.6520013,19.1719972 25.9969978,18.689002 26.435,18.287 C26.8730022,17.884998 27.388997,17.5760011 27.983,17.36 C28.577003,17.1439989 29.2099966,17.036 29.882,17.036 C30.3980026,17.036 30.9409972,17.1229991 31.511,17.297 C32.0810029,17.4710009 32.5759979,17.7739978 32.996,18.206 L31.214,20.078 Z M39.89,20.078 C39.7579993,19.885999 39.5720012,19.7270006 39.332,19.601 C39.0919988,19.4749994 38.8340014,19.412 38.558,19.412 C37.8739966,19.412 37.3430019,19.615998 36.965,20.024 C36.5869981,20.432002 36.398,20.9659967 36.398,21.626 C36.398,22.2860033 36.5869981,22.819998 36.965,23.228 C37.3430019,23.636002 37.8739966,23.84 38.558,23.84 C38.8580015,23.84 39.1159989,23.7740007 39.332,23.642 C39.5480011,23.5099993 39.7339992,23.3540009 39.89,23.174 L41.672,25.046 C41.2519979,25.4780022 40.7570029,25.7809991 40.187,25.955 C39.6169972,26.1290009 39.0740026,26.216 38.558,26.216 C37.8859966,26.216 37.253003,26.1080011 36.659,25.892 C36.064997,25.6759989 35.5490022,25.367002 35.111,24.965 C34.6729978,24.562998 34.3280013,24.0800028 34.076,23.516 C33.8239987,22.9519972 33.698,22.3220035 33.698,21.626 C33.698,20.9299965 33.8239987,20.3000028 34.076,19.736 C34.3280013,19.1719972 34.6729978,18.689002 35.111,18.287 C35.5490022,17.884998 36.064997,17.5760011 36.659,17.36 C37.253003,17.1439989 37.8859966,17.036 38.558,17.036 C39.0740026,17.036 39.6169972,17.1229991 40.187,17.297 C40.7570029,17.4710009 41.2519979,17.7739978 41.672,18.206 L39.89,20.078 Z M50.924,24.488 C50.4919978,25.0400028 49.9460033,25.4659985 49.286,25.766 C48.6259967,26.0660015 47.9420035,26.216 47.234,26.216 C46.5619966,26.216 45.929003,26.1080011 45.335,25.892 C44.740997,25.6759989 44.2250022,25.367002 43.787,24.965 C43.3489978,24.562998 43.0040013,24.0800028 42.752,23.516 C42.4999987,22.9519972 42.374,22.3220035 42.374,21.626 C42.374,20.9299965 42.4999987,20.3000028 42.752,19.736 C43.0040013,19.1719972 43.3489978,18.689002 43.787,18.287 C44.2250022,17.884998 44.740997,17.5760011 45.335,17.36 C45.929003,17.1439989 46.5619966,17.036 47.234,17.036 C47.8580031,17.036 48.4249974,17.1439989 48.935,17.36 C49.4450026,17.5760011 49.8769982,17.884998 50.231,18.287 C50.5850018,18.689002 50.857999,19.1719972 51.05,19.736 C51.242001,20.3000028 51.338,20.9299965 51.338,21.626 L51.338,22.472 L45.074,22.472 C45.1820005,22.9880026 45.4159982,23.3989985 45.776,23.705 C46.1360018,24.0110015 46.5799974,24.164 47.108,24.164 C47.5520022,24.164 47.9269985,24.065001 48.233,23.867 C48.5390015,23.668999 48.8059989,23.4140016 49.034,23.102 L50.924,24.488 Z M48.638,20.636 C48.6500001,20.1799977 48.5000016,19.7900016 48.188,19.466 C47.8759984,19.1419984 47.4740025,18.98 46.982,18.98 C46.6819985,18.98 46.4180011,19.0279995 46.19,19.124 C45.9619989,19.2200005 45.7670008,19.3429992 45.605,19.493 C45.4429992,19.6430007 45.3170005,19.816999 45.227,20.015 C45.1369996,20.213001 45.0860001,20.4199989 45.074,20.636 L48.638,20.636 Z M53.012,12.392 L55.712,12.392 L55.712,26 L53.012,26 L53.012,12.392 Z M65.936,24.488 C65.5039978,25.0400028 64.9580033,25.4659985 64.298,25.766 C63.6379967,26.0660015 62.9540035,26.216 62.246,26.216 C61.5739966,26.216 60.941003,26.1080011 60.347,25.892 C59.752997,25.6759989 59.2370022,25.367002 58.799,24.965 C58.3609978,24.562998 58.0160013,24.0800028 57.764,23.516 C57.5119987,22.9519972 57.386,22.3220035 57.386,21.626 C57.386,20.9299965 57.5119987,20.3000028 57.764,19.736 C58.0160013,19.1719972 58.3609978,18.689002 58.799,18.287 C59.2370022,17.884998 59.752997,17.5760011 60.347,17.36 C60.941003,17.1439989 61.5739966,17.036 62.246,17.036 C62.8700031,17.036 63.4369975,17.1439989 63.947,17.36 C64.4570025,17.5760011 64.8889982,17.884998 65.243,18.287 C65.5970018,18.689002 65.869999,19.1719972 66.062,19.736 C66.254001,20.3000028 66.35,20.9299965 66.35,21.626 L66.35,22.472 L60.086,22.472 C60.1940005,22.9880026 60.4279982,23.3989985 60.788,23.705 C61.1480018,24.0110015 61.5919974,24.164 62.12,24.164 C62.5640022,24.164 62.9389985,24.065001 63.245,23.867 C63.5510015,23.668999 63.8179989,23.4140016 64.046,23.102 L65.936,24.488 Z M63.65,20.636 C63.6620001,20.1799977 63.5120016,19.7900016 63.2,19.466 C62.8879984,19.1419984 62.4860025,18.98 61.994,18.98 C61.6939985,18.98 61.4300011,19.0279995 61.202,19.124 C60.9739989,19.2200005 60.7790008,19.3429992 60.617,19.493 C60.4549992,19.6430007 60.3290005,19.816999 60.239,20.015 C60.1489996,20.213001 60.0980001,20.4199989 60.086,20.636 L63.65,20.636 Z M67.988,17.252 L70.688,17.252 L70.688,18.656 L70.724,18.656 C71.0120014,18.1159973 71.353998,17.7110013 71.75,17.441 C72.146002,17.1709987 72.643997,17.036 73.244,17.036 C73.4000008,17.036 73.5559992,17.0419999 73.712,17.054 C73.8680008,17.0660001 74.0119993,17.0899998 74.144,17.126 L74.144,19.592 C73.951999,19.5319997 73.7630009,19.4870002 73.577,19.457 C73.3909991,19.4269998 73.196001,19.412 72.992,19.412 C72.4759974,19.412 72.0680015,19.4839993 71.768,19.628 C71.4679985,19.7720007 71.2370008,19.9729987 71.075,20.231 C70.9129992,20.4890013 70.8080002,20.7979982 70.76,21.158 C70.7119998,21.5180018 70.688,21.9139978 70.688,22.346 L70.688,26 L67.988,26 L67.988,17.252 Z M80.804,24.902 L80.768,24.902 C80.4679985,25.3700023 80.0690025,25.705999 79.571,25.91 C79.0729975,26.114001 78.5480028,26.216 77.996,26.216 C77.587998,26.216 77.1950019,26.1590006 76.817,26.045 C76.4389981,25.9309994 76.1060014,25.7600011 75.818,25.532 C75.5299986,25.3039989 75.3020008,25.0220017 75.134,24.686 C74.9659992,24.3499983 74.882,23.9600022 74.882,23.516 C74.882,23.0119975 74.9749991,22.5860017 75.161,22.238 C75.3470009,21.8899983 75.5989984,21.6020011 75.917,21.374 C76.2350016,21.1459989 76.597998,20.9690006 77.006,20.843 C77.414002,20.7169994 77.8369978,20.6240003 78.275,20.564 C78.7130022,20.5039997 79.1509978,20.4680001 79.589,20.456 C80.0270022,20.4439999 80.4319981,20.438 80.804,20.438 C80.804,19.9579976 80.6330017,19.5770014 80.291,19.295 C79.9489983,19.0129986 79.5440023,18.872 79.076,18.872 C78.6319978,18.872 78.2270018,18.9649991 77.861,19.151 C77.4949982,19.3370009 77.1680014,19.5919984 76.88,19.916 L75.44,18.44 C75.9440025,17.9719977 76.5319966,17.6210012 77.204,17.387 C77.8760034,17.1529988 78.5719964,17.036 79.292,17.036 C80.084004,17.036 80.7349975,17.134999 81.245,17.333 C81.7550026,17.531001 82.1629985,17.8219981 82.469,18.206 C82.7750015,18.5900019 82.9879994,19.0609972 83.108,19.619 C83.2280006,20.1770028 83.288,20.8219963 83.288,21.554 L83.288,26 L80.804,26 L80.804,24.902 Z M80.138,22.166 C79.933999,22.166 79.6790015,22.1749999 79.373,22.193 C79.0669985,22.2110001 78.7730014,22.2619996 78.491,22.346 C78.2089986,22.4300004 77.969001,22.5559992 77.771,22.724 C77.572999,22.8920008 77.474,23.1259985 77.474,23.426 C77.474,23.7500016 77.6119986,23.9899992 77.888,24.146 C78.1640014,24.3020008 78.4519985,24.38 78.752,24.38 C79.0160013,24.38 79.2709988,24.3440004 79.517,24.272 C79.7630012,24.1999996 79.981999,24.0980007 80.174,23.966 C80.366001,23.8339993 80.5189994,23.666001 80.633,23.462 C80.7470006,23.257999 80.804,23.0180014 80.804,22.742 L80.804,22.166 L80.138,22.166 Z M90.938,19.412 L88.562,19.412 L88.562,22.328 C88.562,22.5680012 88.5739999,22.786999 88.598,22.985 C88.6220001,23.183001 88.6759996,23.3539993 88.76,23.498 C88.8440004,23.6420007 88.9729991,23.7529996 89.147,23.831 C89.3210009,23.9090004 89.5519986,23.948 89.84,23.948 C89.9840007,23.948 90.1729988,23.9330001 90.407,23.903 C90.6410012,23.8729998 90.8179994,23.8040005 90.938,23.696 L90.938,25.946 C90.6379985,26.0540005 90.3260016,26.1259998 90.002,26.162 C89.6779984,26.1980002 89.3600016,26.216 89.048,26.216 C88.5919977,26.216 88.1720019,26.1680005 87.788,26.072 C87.4039981,25.9759995 87.0680014,25.8230011 86.78,25.613 C86.4919986,25.402999 86.2670008,25.1300017 86.105,24.794 C85.9429992,24.4579983 85.862,24.0500024 85.862,23.57 L85.862,19.412 L84.134,19.412 L84.134,17.252 L85.862,17.252 L85.862,14.66 L88.562,14.66 L88.562,17.252 L90.938,17.252 L90.938,19.412 Z M92.342,17.252 L95.042,17.252 L95.042,26 L92.342,26 L92.342,17.252 Z M92.126,14.498 C92.126,14.0659978 92.2789985,13.6970015 92.585,13.391 C92.8910015,13.0849985 93.2599978,12.932 93.692,12.932 C94.1240022,12.932 94.4929985,13.0849985 94.799,13.391 C95.1050015,13.6970015 95.258,14.0659978 95.258,14.498 C95.258,14.9300022 95.1050015,15.2989985 94.799,15.605 C94.4929985,15.9110015 94.1240022,16.064 93.692,16.064 C93.2599978,16.064 92.8910015,15.9110015 92.585,15.605 C92.2789985,15.2989985 92.126,14.9300022 92.126,14.498 Z M96.662,21.626 C96.662,20.9299965 96.7879987,20.3000028 97.04,19.736 C97.2920013,19.1719972 97.6369978,18.689002 98.075,18.287 C98.5130022,17.884998 99.028997,17.5760011 99.623,17.36 C100.217003,17.1439989 100.849997,17.036 101.522,17.036 C102.194003,17.036 102.826997,17.1439989 103.421,17.36 C104.015003,17.5760011 104.530998,17.884998 104.969,18.287 C105.407002,18.689002 105.751999,19.1719972 106.004,19.736 C106.256001,20.3000028 106.382,20.9299965 106.382,21.626 C106.382,22.3220035 106.256001,22.9519972 106.004,23.516 C105.751999,24.0800028 105.407002,24.562998 104.969,24.965 C104.530998,25.367002 104.015003,25.6759989 103.421,25.892 C102.826997,26.1080011 102.194003,26.216 101.522,26.216 C100.849997,26.216 100.217003,26.1080011 99.623,25.892 C99.028997,25.6759989 98.5130022,25.367002 98.075,24.965 C97.6369978,24.562998 97.2920013,24.0800028 97.04,23.516 C96.7879987,22.9519972 96.662,22.3220035 96.662,21.626 Z M99.362,21.626 C99.362,22.2860033 99.5509981,22.819998 99.929,23.228 C100.307002,23.636002 100.837997,23.84 101.522,23.84 C102.206003,23.84 102.736998,23.636002 103.115,23.228 C103.493002,22.819998 103.682,22.2860033 103.682,21.626 C103.682,20.9659967 103.493002,20.432002 103.115,20.024 C102.736998,19.615998 102.206003,19.412 101.522,19.412 C100.837997,19.412 100.307002,19.615998 99.929,20.024 C99.5509981,20.432002 99.362,20.9659967 99.362,21.626 Z M107.966,17.252 L110.558,17.252 L110.558,18.44 L110.594,18.44 C110.678,18.2719992 110.797999,18.1040008 110.954,17.936 C111.110001,17.7679992 111.295999,17.6180007 111.512,17.486 C111.728001,17.3539993 111.973999,17.2460004 112.25,17.162 C112.526001,17.0779996 112.825998,17.036 113.15,17.036 C113.834003,17.036 114.385998,17.140999 114.806,17.351 C115.226002,17.561001 115.552999,17.8519981 115.787,18.224 C116.021001,18.5960019 116.18,19.0339975 116.264,19.538 C116.348,20.0420025 116.39,20.5879971 116.39,21.176 L116.39,26 L113.69,26 L113.69,21.716 C113.69,21.4639987 113.681,21.2030014 113.663,20.933 C113.645,20.6629986 113.591,20.4140011 113.501,20.186 C113.411,19.9579989 113.273001,19.7720007 113.087,19.628 C112.900999,19.4839993 112.634002,19.412 112.286,19.412 C111.937998,19.412 111.656001,19.4749994 111.44,19.601 C111.223999,19.7270006 111.059001,19.894999 110.945,20.105 C110.830999,20.315001 110.756,20.5519987 110.72,20.816 C110.684,21.0800013 110.666,21.3559986 110.666,21.644 L110.666,26 L107.966,26 L107.966,17.252 Z" id="Acceleration"></path>
            </g>
        </g>
    </g>
</svg>